<svg xmlns="http://www.w3.org/2000/svg" version="1.1" xmlns:xlink="http://www.w3.org/1999/xlink" xmlns:svgjs="http://svgjs.dev/svgjs" width="1000" height="750" viewBox="0 0 1000 750"><rect width="1000" height="750" fill="#1f2d5a"></rect><g transform="matrix(0.834,0,0,0.834,82.49454545454546,295.3984443464389)"><svg viewBox="0 0 396 76" data-background-color="#1f2d5a" preserveAspectRatio="xMidYMid meet" height="191" width="1000" xmlns="http://www.w3.org/2000/svg" xmlns:xlink="http://www.w3.org/1999/xlink"><g id="tight-bounds" transform="matrix(1,0,0,1,0.2400000000000091,-0.021681735215111075)"><svg viewBox="0 0 395.52 76.04336347043022" height="76.04336347043022" width="395.52"><g><svg viewBox="0 0 510.41706261800795 98.13367266932272" height="76.04336347043022" width="395.52"><g transform="matrix(1,0,0,1,0,13.562613227091639)"><svg viewBox="0 0 395.52 71.00844621513944" height="71.00844621513944" width="395.52"><g id="textblocktransform"><svg viewBox="0 0 395.52 71.00844621513944" height="71.00844621513944" width="395.52" id="textblock"><g><svg viewBox="0 0 395.52 71.00844621513944" height="71.00844621513944" width="395.52"><g transform="matrix(1,0,0,1,0,0)"><svg width="395.52" viewBox="2.299999952316284 -35.29999923706055 200.7899932861328 36.04999923706055" height="71.00844621513944" data-palette-color="#fbfbfb"><path d="M34.1-34.55L36.8 0 30.35 0 29.45-14.45Q29-22.2 29-26.75L29-26.75 29-28.55 22.7-3.75 16.45-3.75 9.75-28.6Q9.85-25.3 9.85-23.6L9.85-23.6Q9.85-19.05 9.55-14.25L9.55-14.25 8.7 0 2.3 0 5.05-34.55 13.55-34.55 19.7-10.35 25.5-34.55 34.1-34.55ZM68.45 0L61.45 0 59.3-8 47.85-8 45.7 0 38.85 0 49.6-34.55 57.75-34.55 68.45 0ZM53.55-29.5L49.15-13 57.95-13 53.55-29.5ZM72.3-34.55L78.9-34.55 78.9-5.4 92.75-5.4 92 0 72.3 0 72.3-34.55ZM97.59-34.55L104.19-34.55 104.19 0 97.59 0 97.59-34.55ZM137.79-34.55L137.79 0 129.24 0 117.39-27.95Q117.84-24.25 118.07-21.25 118.29-18.25 118.29-14.1L118.29-14.1 118.29 0 112.29 0 112.29-34.55 120.64-34.55 132.69-6.55Q132.39-8.55 132.09-11.83 131.79-15.1 131.79-18.35L131.79-18.35 131.79-34.55 137.79-34.55ZM159.84-35.3Q163.24-35.3 165.86-34.27 168.49-33.25 170.84-31.25L170.84-31.25 167.29-27.55Q165.44-29 163.81-29.65 162.19-30.3 160.04-30.3L160.04-30.3Q156.04-30.3 153.49-27.1 150.94-23.9 150.94-17.3L150.94-17.3Q150.94-10.4 152.96-7.35 154.99-4.3 159.14-4.3L159.14-4.3Q162.29-4.3 164.64-5.65L164.64-5.65 164.64-14.65 159.44-14.65 158.74-19.55 171.14-19.55 171.14-2.65Q165.54 0.75 159.24 0.75L159.24 0.75Q151.84 0.75 147.91-3.85 143.99-8.45 143.99-17.3L143.99-17.3Q143.99-22.95 146.11-27.03 148.24-31.1 151.84-33.2 155.44-35.3 159.84-35.3L159.84-35.3ZM203.09 0L196.09 0 193.94-8 182.49-8 180.34 0 173.49 0 184.24-34.55 192.39-34.55 203.09 0ZM188.19-29.5L183.79-13 192.59-13 188.19-29.5Z" opacity="1" transform="matrix(1,0,0,1,0,0)" fill="#fbfbfb" class="undefined-text-0" data-fill-palette-color="primary" id="text-0"></path></svg></g></svg></g></svg></g></svg></g><g transform="matrix(1,0,0,1,412.2833899486852,0)"><svg viewBox="0 0 98.13367266932272 98.13367266932272" height="98.13367266932272" width="98.13367266932272"><g data-palette-color="#2f76db"><rect width="26.82320386294821" height="98.13367266932272" fill="#2f76db" stroke="transparent" data-fill-palette-color="accent" x="0" fill-opacity="1"></rect><rect width="26.82320386294821" height="98.13367266932272" fill="#2f76db" stroke="transparent" data-fill-palette-color="accent" x="32.71122422310757" fill-opacity="0.75"></rect><rect width="26.82320386294821" height="98.13367266932272" fill="#2f76db" stroke="transparent" data-fill-palette-color="accent" x="65.42244844621514" fill-opacity="0.5"></rect></g></svg></g></svg></g><defs></defs></svg><rect width="395.52" height="76.04336347043022" fill="none" stroke="none" visibility="hidden"></rect></g></svg></g></svg>